<?xml version="1.0" encoding="UTF-8" standalone="no"?>
<svg
   xmlns:dc="http://purl.org/dc/elements/1.1/"
   xmlns:cc="http://creativecommons.org/ns#"
   xmlns:rdf="http://www.w3.org/1999/02/22-rdf-syntax-ns#"
   xmlns:svg="http://www.w3.org/2000/svg"
   xmlns="http://www.w3.org/2000/svg"
   xmlns:sodipodi="http://sodipodi.sourceforge.net/DTD/sodipodi-0.dtd"
   xmlns:inkscape="http://www.inkscape.org/namespaces/inkscape"
   version="1.1"
   id="svg2"
   xml:space="preserve"
   width="4000"
   height="2666.6667"
   viewBox="0 0 4000 2666.6667"
   sodipodi:docname="6671.eps"><metadata
     id="metadata8"><rdf:RDF><cc:Work
         rdf:about=""><dc:format>image/svg+xml</dc:format><dc:type
           rdf:resource="http://purl.org/dc/dcmitype/StillImage" /></cc:Work></rdf:RDF></metadata><defs
     id="defs6" /><sodipodi:namedview
     pagecolor="#ffffff"
     bordercolor="#666666"
     borderopacity="1"
     objecttolerance="10"
     gridtolerance="10"
     guidetolerance="10"
     inkscape:pageopacity="0"
     inkscape:pageshadow="2"
     inkscape:window-width="640"
     inkscape:window-height="480"
     id="namedview4" /><g
     id="g10"
     inkscape:groupmode="layer"
     inkscape:label="ink_ext_XXXXXX"
     transform="matrix(1.3333333,0,0,-1.3333333,0,2666.6667)"><g
       id="g12"
       transform="scale(0.1)"><path
         d="M 30000,0 H 0 V 20000 H 30000 V 0"
         style="fill:#ffffff;fill-opacity:1;fill-rule:nonzero;stroke:none"
         id="path14" /><path
         d="m 4715.09,2812.1 c 0,0 -3615.03,3841.8 -1080.15,7425.5 945.88,1337.3 3360.68,2088.2 5580.48,1479 1311.18,-359.8 3299.68,-306.7 5242.68,2865.1 2649.6,4325.4 13649,2358.6 11502,-5219.8 -904.4,-3192.2 2466.4,-3337.5 796.7,-6556.7 l -22041.71,6.9"
         style="fill:#ebf3fa;fill-opacity:1;fill-rule:nonzero;stroke:none"
         id="path16" /><path
         d="M 24286.1,10508.3 16411.9,3920.8 12269,7450.1 C 11493.5,6767.3 10296,5713.3 9091.22,4655.7 8267.9,3932.9 7601.33,3348.9 7061.04,2876.2 l -3762.94,4.4 c 1043.5,888.4 5245.04,4580.5 8075.6,7075.7 l 865.5,762.9 4188,-3567.8 6147.1,5142.7 1711.8,-1785.8"
         style="fill:#d5e5fb;fill-opacity:1;fill-rule:nonzero;stroke:none"
         id="path18" /><path
         d="m 21577.5,13104.3 3750.2,-3761.7 1059.4,4297.2 z"
         style="fill:#d5e5fb;fill-opacity:1;fill-rule:nonzero;stroke:none"
         id="path20" /><path
         d="m 9283.61,5178.2 c -14.01,344.4 -44.2,644.1 -80.33,853 -57.61,333.1 -109.46,524.7 -110.06,526.7 -7.59,29.3 -117.2,147.9 -360.92,144.2 -243.71,-3.6 -220.6,-159.1 -220.6,-159.1 v 0 c -0.02,-5.2 0.67,-10.1 1.75,-13.8 2.35,-8 226.06,-819.2 216.37,-1866.5 -0.13,-14.7 -1.78,-40.1 -0.74,-57 0.01,-0.1 564.78,-14.6 564.91,0 19.7,91.5 10.09,345.1 -10.38,572.5"
         style="fill:#b7d3f3;fill-opacity:1;fill-rule:nonzero;stroke:none"
         id="path22" /><path
         d="m 9354.62,4667.9 c -0.17,-14.6 -7.87,-26.3 -17.27,-26.3 h -0.22 c -9.39,0.2 -16.87,11.9 -16.98,26.3 h -484.01 c -0.17,-14.6 -7.88,-26.3 -17.27,-26.3 h -0.23 c -9.56,0.2 -17.15,12.3 -17.04,27 2.81,299.8 -14.28,579.8 -40.15,826.9 -64.35,616.2 -183.29,1028 -184.98,1033.7 -1.07,3.7 -1.74,8.6 -1.74,13.8 0,0 -23.12,155.4 220.57,159.1 243.75,3.7 353.37,-114.9 360.96,-144.2 0.45,-1.5 29.81,-110 68.84,-305.1 12.93,-64.6 26.88,-138.7 41.22,-221.6 36.11,-208.9 66.31,-508.6 80.32,-853 20.46,-227.4 27.67,-418.8 7.98,-510.3"
         style="fill:#d2e3fc;fill-opacity:1;fill-rule:nonzero;stroke:none"
         id="path24" /><path
         d="m 8765.83,4641.6 h 1897.57 c 0,0 -44.2,178.8 -1143.14,152.2 -777.7,-18.9 -754.43,-152.2 -754.43,-152.2"
         style="fill:#c5dcf8;fill-opacity:1;fill-rule:nonzero;stroke:none"
         id="path26" /><path
         d="m 8611.38,2773.7 c 220.02,1113.8 163.44,1797.3 163.17,1805.9 -0.56,17.2 31.05,32.7 48.05,33.3 17.21,0.3 93.15,5.1 101.94,-9.6 11.51,-19.2 55.82,-861.3 -272.09,-1829.6 h -41.07"
         style="fill:#b7d3f3;fill-opacity:1;fill-rule:nonzero;stroke:none"
         id="path28" /><path
         d="m 10383.1,2773.7 c -220,1113.8 -163.4,1797.3 -163.1,1805.9 0.5,17.2 -31.1,32.7 -48.1,33.3 -17.2,0.3 -93.1,5.1 -101.9,-9.6 -11.5,-19.2 -55.9,-861.3 272.1,-1829.6 h 41"
         style="fill:#b7d3f3;fill-opacity:1;fill-rule:nonzero;stroke:none"
         id="path30" /><path
         d="m 10734.2,2773.7 c -220,1113.8 -163.4,1797.3 -163.1,1805.9 0.5,17.2 -31.1,32.7 -48.1,33.3 -17.2,0.3 -93.1,5.1 -101.9,-9.6 -11.5,-19.2 -55.8,-861.3 272.1,-1829.6 h 41"
         style="fill:#b7d3f3;fill-opacity:1;fill-rule:nonzero;stroke:none"
         id="path32" /><path
         d="m 8964.86,2773.7 c 220.02,1113.8 163.45,1797.3 163.17,1805.9 -0.55,17.2 31.05,32.7 48.05,33.3 17.22,0.3 93.16,5.1 101.94,-9.6 11.52,-19.2 55.82,-861.3 -272.09,-1829.6 h -41.07"
         style="fill:#b7d3f3;fill-opacity:1;fill-rule:nonzero;stroke:none"
         id="path34" /><path
         d="M 10664.5,4584.5 H 8766.96 c -21.38,0 -38.87,17.5 -38.87,38.9 v 25.5 c 0,21.4 17.49,38.9 38.87,38.9 h 1897.54 c 21.4,0 38.9,-17.5 38.9,-38.9 v -25.5 c 0,-21.4 -17.5,-38.9 -38.9,-38.9"
         style="fill:#b7d3f3;fill-opacity:1;fill-rule:nonzero;stroke:none"
         id="path36" /><path
         d="m 10597.9,6298.2 630.7,136.6 37.2,-90.5 c 0,0 -696,-414.2 -761.2,-393.9 -65.2,20.3 93.3,347.8 93.3,347.8"
         style="fill:#ffb27d;fill-opacity:1;fill-rule:nonzero;stroke:none"
         id="path38" /><path
         d="m 10024.4,3445.4 c -15.8,-18.1 -17.8,-38.3 -10,-59.9 0,-0.1 0.1,-0.2 0.2,-0.3 14.4,-39.9 62.2,-84.6 117.7,-129.1 7.1,-5.7 13.4,-11 18.9,-15.8 1.4,-1.2 2.9,-2.5 4.2,-3.8 1.1,-1 2.2,-2 3.3,-2.9 51.7,-47.7 32.3,-58.6 125.2,-155.4 106,-110.3 179,-112.3 199.7,-102.3 17.6,8.6 -18.1,67.1 -57.6,132.8 -1.9,3.2 -3.8,6.4 -5.8,9.6 -5.2,8.8 -10.5,17.6 -15.7,26.4 -46.3,79.1 -34.4,116.3 -23.5,234 9,95.7 148.9,534.6 148.9,534.6 l -203.1,35 c 0,0 -61.2,-349.5 -128.6,-403.3 -36,-28.7 -76.4,-29.1 -111,-50.3 -2.5,-1.5 -4.9,-3 -7.2,-4.6 -19.7,-13 -39.7,-26.5 -55.6,-44.7"
         style="fill:#ffb27d;fill-opacity:1;fill-rule:nonzero;stroke:none"
         id="path40" /><path
         d="m 10024.4,3445.4 c -15.8,-18.1 -17.8,-38.3 -10,-59.9 0,-0.1 0.1,-0.2 0.2,-0.3 17.7,-39.9 64.2,-84.3 117.9,-128.7 7,-5.8 13.2,-11.2 18.7,-16.2 1.4,-1.2 2.9,-2.5 4.2,-3.8 1.1,-1 2.2,-2 3.3,-2.9 51.7,-47.7 32.3,-58.6 125.2,-155.4 106,-110.3 179,-112.3 199.7,-102.3 17.6,8.6 -18.1,67.1 -57.6,132.8 -20.6,7.6 -116.5,46.5 -189,139.3 -63.8,81.4 -106.3,186.1 -149.8,246.7 -2.5,-1.5 -4.9,-3 -7.2,-4.6 -19.7,-13 -39.7,-26.5 -55.6,-44.7"
         style="fill:#1c468a;fill-opacity:1;fill-rule:nonzero;stroke:none"
         id="path42" /><path
         d="m 11662.3,3572.3 c 12.5,-62.7 101.9,-52.2 201.8,-27.8 99.8,24.4 76.1,-4.6 218.2,11.1 142.1,15.7 185.2,68.7 189.5,89.8 3.9,18.8 -66.3,25.4 -141.7,34.1 -9.4,1 -19,2.2 -28.5,3.4 -85,10.7 -147.3,65.5 -224.5,110.6 -73.2,42.7 -182.4,216.6 -182.4,216.6 l -194.9,-15.4 c 0,0 102.3,-155.4 141.9,-222.9 23.2,-39.7 22,-92.3 19.1,-132.8 -1.5,-22.1 -2.9,-44.6 1.5,-66.7"
         style="fill:#ffb27d;fill-opacity:1;fill-rule:nonzero;stroke:none"
         id="path44" /><path
         d="m 11864.1,3544.5 c 99.8,24.4 76.1,-4.6 218.2,11.1 142.1,15.7 185.2,68.7 189.5,89.8 3.9,18.8 -66.3,25.4 -141.7,34.1 l -0.7,-1.5 c 0,0 -85.2,-60.4 -203.5,-63.2 -96.4,-2.4 -198.5,25.3 -265.1,24.2 -1.5,-22.1 -2.9,-44.6 1.5,-66.7 12.5,-62.7 101.9,-52.2 201.8,-27.8"
         style="fill:#1c468a;fill-opacity:1;fill-rule:nonzero;stroke:none"
         id="path46" /><path
         d="m 11228.6,6434.8 c 0,0 46.5,113.8 97.6,118.4 51,4.7 213.6,30.2 225.2,7 11.6,-23.2 0,-106.8 -34.9,-137 -34.8,-30.2 -250.7,-78.9 -250.7,-78.9 l -37.2,90.5"
         style="fill:#ffb27d;fill-opacity:1;fill-rule:nonzero;stroke:none"
         id="path48" /><path
         d="m 10915.4,4818.5 -420,-1130.4 c 0,0 -64.5,-6.2 -126.4,11.6 -56.9,16.4 -122.2,59.5 -122.2,59.5 0,0 104.2,1085.4 295.3,1311.1 191,225.8 373.3,-251.8 373.3,-251.8"
         style="fill:#163560;fill-opacity:1;fill-rule:nonzero;stroke:none"
         id="path50" /><path
         d="m 9254.09,5275.8 c 0,0 1206.91,408.1 1476.11,321.3 269.2,-86.9 1077.3,-1694.8 1077.3,-1694.8 0,0 -18.2,-24.2 -68,-42.9 -46.3,-17.4 -158.4,-16.3 -158.4,-16.3 0,0 -729.4,625.2 -816.2,807.5 -86.8,182.4 -121.5,356 -208.4,338.7 -86.8,-17.4 -1120.07,-425.5 -1354.51,-182.4 -234.44,243.1 -173.13,559 -173.13,559 l 225.23,-90.1"
         style="fill:#1c468a;fill-opacity:1;fill-rule:nonzero;stroke:none"
         id="path52" /><path
         d="m 9942.17,8153.5 c -52.17,29.6 -114.69,32.9 -158.42,30.3 11.26,11.6 33.41,15.9 33.41,15.9 -27.12,4 -87.64,-22.9 -87.64,-22.9 -377.2,145.3 -436.49,-410.1 -428.56,-539.1 7.86,-129 8.82,-277.5 -179.48,-393.3 -370.49,-227.7 -57.89,-625.2 -57.89,-625.2 2.92,-1.7 172.38,-289.1 172.38,-289.1 -9.51,104.3 471.59,654.5 722.59,819.3 61.14,90 82.84,248.9 84.44,261.4 -10.5,-126 -32.1,-196.7 -51.36,-236.5 212.56,195.6 88.76,900.6 -49.47,979.2"
         style="fill:#b5453c;fill-opacity:1;fill-rule:nonzero;stroke:none"
         id="path54" /><path
         d="m 9943.71,7141.2 c 1.25,-0.5 -121.2,-64.1 -213.3,-38.9 -86.64,23.6 -143.25,135.9 -142.06,136.2 36.7,7.3 47.28,57.7 46.5,274.3 l 16.59,-3.2 278.88,-55.2 c 0,0 -6.34,-87.8 -6.53,-170.5 -0.19,-69.4 4.02,-135.3 19.92,-142.7"
         style="fill:#ffb27d;fill-opacity:1;fill-rule:nonzero;stroke:none"
         id="path56" /><path
         d="m 9930.32,7454.4 c 0,0 -6.34,-87.8 -6.53,-170.5 -156.06,4.4 -238.55,146.8 -272.35,225.7 l 278.88,-55.2"
         style="fill:#ed975d;fill-opacity:1;fill-rule:nonzero;stroke:none"
         id="path58" /><path
         d="m 9622.63,7539.9 c 0,0 -81.79,129.3 -101.41,239.8 -14.02,78.8 26.16,371.3 320.01,329.1 0,0 85.34,-8.4 165.57,-62.6 63.8,-43 155.9,-136.1 52.9,-391.2 l -26.7,-86.2 -410.37,-28.9"
         style="fill:#b5453c;fill-opacity:1;fill-rule:nonzero;stroke:none"
         id="path60" /><path
         d="m 9982.44,7376.1 c 0,0 -369.24,-6.1 -369.5,223.9 -0.25,230 -48.08,384.1 187.67,397.7 235.69,13.6 281.59,-74.1 300.39,-150.8 18.8,-76.8 -22.5,-463.3 -118.56,-470.8"
         style="fill:#ffb27d;fill-opacity:1;fill-rule:nonzero;stroke:none"
         id="path62" /><path
         d="m 9968.77,8003.3 c 0,0 -101.09,-269.8 -256.25,-309.7 -155.15,-39.9 -222.45,1.7 -222.45,1.7 0,0 119.01,94.5 143.71,259.5 0,0 258.73,177 334.99,48.5"
         style="fill:#b5453c;fill-opacity:1;fill-rule:nonzero;stroke:none"
         id="path64" /><path
         d="m 9943.72,7981.4 c 0,0 75.48,-60.2 93.88,-118.8 18.4,-58.6 26.7,-179.1 61.9,-175 0,0 76.1,183.4 -9.5,287.1 -90.74,110.1 -146.28,6.7 -146.28,6.7"
         style="fill:#b5453c;fill-opacity:1;fill-rule:nonzero;stroke:none"
         id="path66" /><path
         d="m 9121.48,6147.9 c -36.41,152.7 87.48,449 216.8,694.3 117.34,222.4 239.14,402.8 250.08,396.3 309.47,-183.7 337.44,-31 337.44,-31 h 0.01 c 0.12,0 281.09,-37.3 360.69,-174.3 98.7,-170 205.4,-645.1 311.4,-735 -16.3,-49.8 -9.3,-76.3 7.9,-138 3.7,-13.2 7.8,-25.8 12.3,-37.7 16,-43.4 35.9,-78.7 53.2,-109.2 -53.9,-32.8 -157.9,-95 -234.5,-50.3 -116.8,68.4 -208,276.5 -259.3,359.4 -0.2,0.3 -0.3,0.6 -0.5,0.9 -111.5,-631.1 40.1,-774.8 -36.7,-841.3 -81,-70.3 -196.79,33.4 -451.51,-77 -167.06,-72.5 -398.91,-177.2 -554.98,-195.5 -81.85,-9.6 -142.93,4.7 -162.84,59.9 -57.89,160.7 219.98,587.3 150.51,878.5"
         style="fill:#1c468a;fill-opacity:1;fill-rule:nonzero;stroke:none"
         id="path68" /><path
         d="m 9900.36,7515.5 c 0,0 6.88,-29.2 79.57,-24.7 0,0 61.07,3.7 59.17,35.9 0,0 -59.19,22.8 -138.74,-11.2"
         style="fill:#ffffff;fill-opacity:1;fill-rule:nonzero;stroke:none"
         id="path70" /><path
         d="m 8970.97,5269.4 c 19.91,-55.2 80.99,-69.5 162.84,-59.9 108.03,47.1 574.67,227.9 569.46,350.4 -7.76,181.3 -89.73,187.1 -31.84,411 46.49,179.7 -384.69,513.9 -453.47,586.6 -129.32,-245.3 -132.89,-256.9 -96.48,-409.6 69.47,-291.2 -208.4,-717.8 -150.51,-878.5"
         style="fill:#163560;fill-opacity:1;fill-rule:nonzero;stroke:none"
         id="path72" /><path
         d="m 8918.22,5923.6 c 82.76,116.2 168.97,177.6 225.68,208.5 -13.05,33.7 348.09,476.4 348.09,545 0,69.5 96.36,561.4 96.36,561.4 0,0 -300.91,-18.6 -405.1,-163.9 -130.3,-181.7 -400.91,-881 -265.03,-1151"
         style="fill:#1c468a;fill-opacity:1;fill-rule:nonzero;stroke:none"
         id="path74" /><path
         d="m 9143.9,6132.1 601.34,-156.9 -56.45,-101.3 c 0,0 -731.79,5.1 -770.57,49.7 -38.78,44.5 225.68,208.5 225.68,208.5"
         style="fill:#ffb27d;fill-opacity:1;fill-rule:nonzero;stroke:none"
         id="path76" /><path
         d="m 10177.5,6322.4 c 51.3,-82.9 142.5,-291 259.3,-359.4 76.6,-44.7 180.6,17.5 234.5,50.3 -17.3,30.5 -37.2,65.8 -53.2,109.2 -43,-9.9 -95.4,-22.4 -129.3,-32.6 -65.8,-19.9 -311.3,232.5 -311.3,232.5"
         style="fill:#163560;fill-opacity:1;fill-rule:nonzero;stroke:none"
         id="path78" /><path
         d="m 9745.24,5975.2 c 0,0 188.83,53.5 233.81,41 44.95,-12.5 199.05,-114.6 177.45,-142.3 -21.7,-27.7 -157.46,16.6 -219.93,8.2 -62.47,-8.4 -110.78,-39.2 -155.76,-32.5 -44.98,6.6 -92.02,24.3 -92.02,24.3 l 56.45,101.3"
         style="fill:#ffb27d;fill-opacity:1;fill-rule:nonzero;stroke:none"
         id="path80" /><path
         d="m 9745.24,5975.2 c 0,0 92.39,47.5 118.67,74.5 3.31,3.4 8.92,2.7 11.47,-1.3 7.04,-11.1 13.63,-32.6 -18.77,-53.9 -46.65,-30.7 -111.37,-19.3 -111.37,-19.3"
         style="fill:#ffb27d;fill-opacity:1;fill-rule:nonzero;stroke:none"
         id="path82" /><path
         d="m 10617.9,5709.5 h -880.99 v 0 c 0,38.8 31.44,70.3 70.23,70.3 h 810.76 v -70.3"
         style="fill:#ed7d2b;fill-opacity:1;fill-rule:nonzero;stroke:none"
         id="path84" /><path
         d="m 10615.4,6669.1 h 1362.1 l -326.7,-959.6 h -1371 l 335.6,959.6"
         style="fill:#ed7d2b;fill-opacity:1;fill-rule:nonzero;stroke:none"
         id="path86" /><path
         d="m 11997.6,6669 -326.8,-959.4 h -1370.9 l 335.5,959.4 h 1362.2"
         style="fill:#f99746;fill-opacity:1;fill-rule:nonzero;stroke:none"
         id="path88" /><path
         d="m 11263.2,6198.2 c -8.5,-36.7 -45.1,-66.4 -81.7,-66.4 -36.7,0 -59.5,29.7 -51.1,66.4 8.5,36.6 45.1,66.4 81.7,66.4 36.7,0 59.6,-29.8 51.1,-66.4"
         style="fill:#f9ddbf;fill-opacity:1;fill-rule:nonzero;stroke:none"
         id="path90" /><path
         d="m 11997.6,6669 -326.8,-959.4 h -907.9 c 601.4,205.2 761.5,831.1 788.4,959.4 h 446.3"
         style="fill:#ed893e;fill-opacity:1;fill-rule:nonzero;stroke:none"
         id="path92" /><path
         d="m 8043.18,2773.7 c 17.23,0 31.96,12.1 34.9,28.7 l 171.08,969.6 246.07,1394.7 68.81,389.9 -175.27,5 -30.41,-226.4 -213.51,-1590.9 -126.59,-943 c -1.95,-14.6 9.74,-27.6 24.92,-27.6"
         style="fill:#95c0f4;fill-opacity:1;fill-rule:nonzero;stroke:none"
         id="path94" /><path
         d="m 8358.36,5335.2 c 113.56,-50.1 136.87,-168.5 136.87,-168.5 l 68.81,389.9 -175.27,5 -30.41,-226.4"
         style="fill:#78acea;fill-opacity:1;fill-rule:nonzero;stroke:none"
         id="path96" /><path
         d="m 12402.6,2773.7 c -17.2,0 -31.9,12.1 -34.9,28.7 l -171,969.6 -246.1,1394.7 -68.8,389.9 175.2,5 30.4,-226.4 213.6,-1590.9 126.5,-943 c 2,-14.6 -9.7,-27.6 -24.9,-27.6"
         style="fill:#95c0f4;fill-opacity:1;fill-rule:nonzero;stroke:none"
         id="path98" /><path
         d="m 12087.4,5335.2 c -113.5,-50.1 -136.8,-168.5 -136.8,-168.5 l -68.8,389.9 175.2,5 30.4,-226.4"
         style="fill:#78acea;fill-opacity:1;fill-rule:nonzero;stroke:none"
         id="path100" /><path
         d="m 7926.24,5403.5 h 4488.36 c 58.8,0 106.9,48.1 106.9,106.9 v 92.4 c 0,58.8 -48.1,106.9 -106.9,106.9 H 7926.24 c -58.8,0 -106.9,-48.1 -106.9,-106.9 v -92.4 c 0,-58.8 48.1,-106.9 106.9,-106.9"
         style="fill:#78acea;fill-opacity:1;fill-rule:nonzero;stroke:none"
         id="path102" /><path
         d="M 28077.1,2783 H 1688.58 c -16.48,0 -29.96,13.4 -29.96,29.9 v 10.3 c 0,16.4 13.48,29.9 29.96,29.9 H 28077.1 c 16.5,0 30,-13.5 30,-29.9 v -10.3 c 0,-16.5 -13.5,-29.9 -30,-29.9"
         style="fill:#2e3552;fill-opacity:1;fill-rule:nonzero;stroke:none"
         id="path104" /><path
         d="m 19074.7,5872.9 c 0,0 -116.5,-144.4 -80,-164.1 36.3,-19.7 132.5,-56.5 155.2,-33.3 22.7,23.2 29.8,193.4 29.8,193.4 l -105,4"
         style="fill:#ffb27d;fill-opacity:1;fill-rule:nonzero;stroke:none"
         id="path106" /><path
         d="m 19079.4,5870.5 c 0,0 -47.6,-16.5 -66.3,-41.3 -18.7,-24.7 -60.1,-62.5 -50,-72.9 10.2,-10.5 69.6,35.7 69.6,35.7 l 46.7,78.5"
         style="fill:#ffb27d;fill-opacity:1;fill-rule:nonzero;stroke:none"
         id="path108" /><path
         d="m 19514.8,7801.2 c 0,0 -131.2,-1221.7 -142.9,-1256.5 -2.5,-7.5 -12.8,-46.2 -27.3,-101.8 -20.7,-79.5 -49.9,-193.7 -77.6,-302.3 -41.7,-164 -80,-315.4 -80,-315.4 l -114,37.6 c 0,0 -5.9,593.7 23.4,730.4 29.4,136.7 123.1,976.7 170.5,1089.7 47.2,113 247.9,118.3 247.9,118.3"
         style="fill:#aec3ff;fill-opacity:1;fill-rule:nonzero;stroke:none"
         id="path110" /><path
         d="m 19241.9,4871.6 -715.7,187.7 c -93.1,24.5 -149.4,120.7 -125,213.8 l 81.4,310.2 c 24.4,93.1 120.6,149.4 213.8,124.9 l 715.7,-187.7 c 93.2,-24.4 149.4,-120.6 125,-213.8 l -81.4,-310.1 c -24.4,-93.2 -120.6,-149.4 -213.8,-125"
         style="fill:#a02e2e;fill-opacity:1;fill-rule:nonzero;stroke:none"
         id="path112" /><path
         d="m 19224.9,5570.5 -255.7,67.1 17.6,66.9 c 3,11.5 14.9,18.4 26.4,15.4 l 64.2,-16.8 117.8,-30.9 31.8,-8.3 c 2.2,-0.6 4.1,-1.5 6,-2.6 7.8,-4.9 11.9,-14.5 9.5,-23.9 z m -647.9,-11.8 -82.3,-313.7 c -15.9,-60.8 2.3,-122.8 42.7,-165.5 13.3,-14.2 29.1,-26.3 47,-35.4 0,0 0,0 0.1,0 v -0.1 c 11.1,-5.7 23,-10.3 35.7,-13.6 l 714.4,-187.4 c 93.5,-24.5 190.1,31.9 214.6,125.4 l 82.3,313.8 c 24.5,93.5 -31.9,190.1 -125.4,214.6 l -246,64.5 17.5,66.9 c 8.2,31 -10.5,62.7 -41.4,70.8 l -26.9,7.1 -149.7,39.2 -37.2,9.8 c -14.9,3.9 -30.5,1.7 -43.9,-6.1 -13.4,-7.8 -23,-20.4 -26.9,-35.3 l -17.5,-66.9 -142.5,37.4 c -5.7,1.5 -11.3,2.6 -16.9,3.5 h -0.1 -0.1 c -57.2,9.2 -114,-11.1 -152.9,-50.6 v -0.1 c -20.9,-21.1 -36.6,-47.7 -44.6,-78.3"
         style="fill:#bc3f3f;fill-opacity:1;fill-rule:nonzero;stroke:none"
         id="path114" /><path
         d="m 19142.7,5672.3 c 0,0 31.8,53.5 19.9,72.2 -11.9,18.7 -54.8,-55.5 -54.8,-55.5 0,0 29.3,63.7 18.4,74.2 -11,10.5 -55.9,-62.7 -55.9,-62.7 0,0 28,61.9 18.2,64 -9.8,2.1 -43.1,-52.1 -43.1,-52.1 0,0 17.3,46.4 1.5,44.1 -15.8,-2.2 -50,-44.4 -50,-44.4 l 145.8,-39.8"
         style="fill:#ffb27d;fill-opacity:1;fill-rule:nonzero;stroke:none"
         id="path116" /><path
         d="m 19344.6,6442.9 c -20.7,-79.5 -49.9,-193.7 -77.6,-302.3 -17.8,50.2 -40.5,130.1 -54.8,239.7 -26.4,202.1 54.7,632.9 54.7,632.9 l 77.7,-570.3"
         style="fill:#9db0f4;fill-opacity:1;fill-rule:nonzero;stroke:none"
         id="path118" /><path
         d="m 20845.9,5923.2 c 0,0 126.9,-103.1 142.6,-135.3 15.6,-32.2 55.1,-151.4 53,-189.8 -2.1,-38.5 -97.2,87.9 -125.2,98.1 -27.9,10.2 29.2,-51.9 22.8,-65.2 -6.4,-13.3 -66,30.2 -88.7,44.4 -22.7,14.2 -38.6,110.6 -72.5,163.1 -33.8,52.4 68,84.7 68,84.7"
         style="fill:#ffb27d;fill-opacity:1;fill-rule:nonzero;stroke:none"
         id="path120" /><path
         d="m 19180.9,2836.8 h 632.6 c 45.3,30.7 -12.2,331.2 -12.2,331.2 0,0 -172.7,65.6 -202.5,-67.7 -29.9,-133.1 -219.9,-175.4 -320.5,-191.7 -68.8,-11.2 -90.6,-49 -97.4,-71.8"
         style="fill:#233862;fill-opacity:1;fill-rule:nonzero;stroke:none"
         id="path122" /><path
         d="m 20119.1,2836.8 h 632.7 c 45.3,30.7 -12.3,331.2 -12.3,331.2 0,0 -172.6,65.6 -202.5,-67.7 -29.9,-133.1 -219.9,-175.4 -320.4,-191.7 -68.9,-11.2 -90.6,-49 -97.5,-71.8"
         style="fill:#233862;fill-opacity:1;fill-rule:nonzero;stroke:none"
         id="path124" /><path
         d="m 19351.1,5902.7 c 0,0 28.4,-354.8 61.8,-781.3 45.4,-579.3 168,-2015.6 168,-2015.6 0,0 80.3,-68.5 258.2,-31 0,0 151.4,495.5 196.7,1061 0.7,9.3 1.4,18.6 2.1,28 42.2,575.7 107.7,1788 107.7,1788 l -794.5,-49.1"
         style="fill:#2b478b;fill-opacity:1;fill-rule:nonzero;stroke:none"
         id="path126" /><path
         d="m 19341.4,6025.3 c 0,0 38.1,-477.4 71.5,-903.9 l 622.9,-985.6 c 0.7,9.3 1.4,18.6 2.1,28 42.2,575.7 107.7,1788 107.7,1788 l -804.2,73.5"
         style="fill:#233862;fill-opacity:1;fill-rule:nonzero;stroke:none"
         id="path128" /><path
         d="m 19522.9,6025.3 c 0,0 451.8,-1124.6 596.2,-1550.9 102.9,-303.6 393,-1368.8 393,-1368.8 0,0 126.2,-38.4 232.2,35.8 0,0 108,1088.3 -110.1,1395.2 -115.7,162.8 -28.7,1692.3 -497.7,1705.4 -469.1,13.1 -613.6,-216.7 -613.6,-216.7"
         style="fill:#2b478b;fill-opacity:1;fill-rule:nonzero;stroke:none"
         id="path130" /><path
         d="m 20383.8,5923.2 c -188.3,-106.3 -995.4,-103.9 -1032.7,-20.5 -83.5,186.3 -104.5,1132.8 -65.1,1423.1 0,0 20.4,446.2 65.1,426.5 298,137 780.5,12.6 780.5,12.6 130.1,-38.3 119,-335.6 155.3,-753.1 4.6,-53.8 9.8,-109.8 15.6,-167.8 25.7,-257.8 63.1,-553.9 119.8,-866.3 3.8,-20.6 -10.5,-38.8 -38.5,-54.5"
         style="fill:#aec3ff;fill-opacity:1;fill-rule:nonzero;stroke:none"
         id="path132" /><path
         d="m 19908.7,7815.1 c -5,-79.8 -109.1,-70.8 -234.2,-42.2 -125.1,28.5 -79.8,102.3 -79.8,102.3 0,0 1.8,56.7 9.7,124.7 2.9,24.7 6.5,51 11.3,76.5 2.2,12.4 4.6,24.8 7.4,36.6 16.4,70.3 250,2.5 248.4,-16.4 -4.6,-51 32.3,-218.8 37.2,-281.5"
         style="fill:#ffb27d;fill-opacity:1;fill-rule:nonzero;stroke:none"
         id="path134" /><path
         d="m 19640.5,7675.8 -9.9,110.3 138.5,-26.2 -53.3,-98.4 -75.3,14.3"
         style="fill:#233862;fill-opacity:1;fill-rule:nonzero;stroke:none"
         id="path136" /><path
         d="m 19597.6,7927.1 -82.8,-125.9 c 0,0 0,-77.4 71.9,-133.6 l 113.2,105.4 c 0,0 -73.2,27.9 -102.3,154.1"
         style="fill:#9db0f4;fill-opacity:1;fill-rule:nonzero;stroke:none"
         id="path138" /><path
         d="m 19699.9,7773 c 0,0 23.4,-84.2 68.7,-122.8 0,0 176.8,47.5 218.9,138.1 l -92,118.8 c 0,0 -4.5,-89.9 -195.6,-134.1"
         style="fill:#9db0f4;fill-opacity:1;fill-rule:nonzero;stroke:none"
         id="path140" /><path
         d="m 19872.8,8056.9 c 0,0 -112.5,-74.8 -268.4,-57 2.9,24.7 6.5,51 11.3,76.5 30.7,7.4 56.5,12.1 56.5,12.1 l 200.6,-31.6"
         style="fill:#e2915a;fill-opacity:1;fill-rule:nonzero;stroke:none"
         id="path142" /><path
         d="m 19944.2,8141.9 c -55,-151.3 -255.7,-112.7 -341.1,-88.4 -24.1,6.8 -39,12.5 -39,12.5 -26.4,12 -34.6,58.1 -32.2,116.3 4.5,115.2 50,277.8 76.1,317 39.3,59 104.8,118.9 299.5,35.4 194.7,-83.5 107.2,-198.9 36.7,-392.8"
         style="fill:#ffb27d;fill-opacity:1;fill-rule:nonzero;stroke:none"
         id="path144" /><path
         d="m 20094.5,8219.6 c -61.4,-50.1 -193.4,-142.8 -193.4,-142.8 0,0 14.7,17.4 32.6,67.4 2.1,5.7 2.7,14 2.4,22.8 -0.7,24.5 5.2,49 18.1,69.9 8,13.1 10.9,26.6 0.8,36.2 -16.7,15.8 -45.2,1.3 -63.9,-11.5 -12.3,-8.4 -28.4,-8.9 -41.1,-1.1 -0.1,0.1 -0.2,0.1 -0.3,0.2 -52.4,32.9 5.5,90.8 -37.1,138.9 -42.8,48.1 -227.4,54.7 -220,84.8 -63,35.6 -23.3,167 -22.1,174 0,0 90.4,-8 203.4,20.2 91.7,23 192.8,-35.9 224.7,-60.1 0,5.8 -0.9,13.8 -5.1,22.4 0,0 13.9,-13.7 13.7,-29.7 1.4,-1.4 2,-2.4 1.6,-2.7 0,0 18.2,0.4 28.9,-6.7 0,0 -7.8,2.5 -11.5,-2.2 -0.5,-0.5 -1,-0.8 -1.6,-1.2 122.7,-86.7 120.9,-337.1 69.9,-378.8"
         style="fill:#233862;fill-opacity:1;fill-rule:nonzero;stroke:none"
         id="path146" /><path
         d="m 19654,8163.8 c 0,0 -9.9,-19.1 -59.5,-3.3 0,0 -41.7,13.3 -34.8,35.3 0,0 45,5.5 94.3,-32"
         style="fill:#ffffff;fill-opacity:1;fill-rule:nonzero;stroke:none"
         id="path148" /><path
         d="m 19640.5,7675.8 c 0,0 -110.6,-1396.8 -109,-1513.2 1.5,-116.4 122.5,-239.4 122.5,-239.4 0,0 96.3,105.5 115.1,216.8 18.8,111.3 -53.3,1521.5 -53.3,1521.5 l -75.3,14.3"
         style="fill:#2a4e96;fill-opacity:1;fill-rule:nonzero;stroke:none"
         id="path150" /><path
         d="m 20131.7,7764.9 c 0,0 178.4,-42.7 319.5,-313.7 141.1,-271 252.5,-817.6 319.8,-961.8 67.4,-144.3 113.6,-598.6 113.6,-598.6 l -106.7,-52.3 c 0,0 -257.4,465.6 -295.5,618.3 -20.6,82.6 -335.4,743.9 -335.4,743.9 l -15.3,564.2"
         style="fill:#aec3ff;fill-opacity:1;fill-rule:nonzero;stroke:none"
         id="path152" /><path
         d="m 20383.8,5923.2 c 0,0 0,0 -0.1,0 -336,48.3 -239.7,1160.3 -213.4,1164.7 26.4,4.4 123,-198.8 123,-198.8 l 9.2,-45.1 c 25.7,-257.8 63.1,-553.9 119.8,-866.3 3.8,-20.6 -10.5,-38.8 -38.5,-54.5"
         style="fill:#9db0f4;fill-opacity:1;fill-rule:nonzero;stroke:none"
         id="path154" /><path
         d="m 24575.8,3494.1 c 0,0 139.9,-127.7 112.6,-218.4 -27.3,-90.7 -153.6,-151.2 -170.6,-262.1 -17.1,-110.8 -85.3,-171.3 -146.7,-171.3 -61.4,0 -292.8,0 -292.8,0 0,0 -45.2,78 63.9,101.5 109.2,23.5 150.4,153.8 143.6,274.8 -6.8,120.9 10.2,282.2 10.2,282.2 l 232,53.7 47.8,-60.4"
         style="fill:#233862;fill-opacity:1;fill-rule:nonzero;stroke:none"
         id="path156" /><path
         d="m 22859.6,3163.9 c 0,0 25.1,-290.6 -36.4,-320.8 l -785.9,1.6 c 0,0 0,90.7 126.2,110.9 126.3,20.1 348,94 385.6,258.7 37.5,164.6 310.5,-50.4 310.5,-50.4"
         style="fill:#233862;fill-opacity:1;fill-rule:nonzero;stroke:none"
         id="path158" /><path
         d="m 22196,7268 c 0,0 41.4,-509.3 90.2,-1121.5 66.2,-831.6 145.8,-1853.1 153.7,-2046.6 13.6,-336 68.3,-873.5 68.3,-873.5 0,0 129.6,-127.7 388.9,-73.9 0,0 231.2,767.3 297.2,1579.2 1,13.3 2,26.7 3.1,40.1 61.4,826.5 156.9,2566.8 156.9,2566.8 L 22196,7268"
         style="fill:#2a4e96;fill-opacity:1;fill-rule:nonzero;stroke:none"
         id="path160" /><path
         d="m 22196,7268 c 0,0 41.4,-509.3 90.2,-1121.5 l 908.1,-1414.8 c 1,13.3 2,26.7 3.1,40.1 61.4,826.5 156.9,2566.8 156.9,2566.8 L 22196,7268"
         style="fill:#233862;fill-opacity:1;fill-rule:nonzero;stroke:none"
         id="path162" /><path
         d="m 22385.3,7207.5 c 0,0 747.2,-1844.4 1238.5,-2711.2 491.4,-866.8 644.9,-1108.7 644.9,-1108.7 0,0 281.5,110.9 307.1,186.5 0,0 -187.9,1673.4 -516.9,2081.3 -185.9,230.5 -346.3,741.9 -338.3,983.9 13.9,417.3 -142.8,900.9 -142.8,900.9 l -1192.5,-332.7"
         style="fill:#2a4e96;fill-opacity:1;fill-rule:nonzero;stroke:none"
         id="path164" /><path
         d="m 21788.6,7180.4 c 0,0 -139.5,-188.9 -149.8,-239.3 -10.3,-50.4 -22.3,-230.4 -5.6,-283.1 16.7,-52.7 103.7,157.2 138.9,181.4 35.2,24.2 -22,-82.6 -8.3,-98.8 13.7,-16.3 80.9,65.6 107.4,93.5 26.5,28 14,167.8 42.3,252.9 28.2,85.1 -124.9,93.4 -124.9,93.4"
         style="fill:#ffb27d;fill-opacity:1;fill-rule:nonzero;stroke:none"
         id="path166" /><path
         d="m 22403.9,9925.8 c 0,0 -188.5,-1755.1 -205.3,-1805.1 -3.7,-10.9 -18.5,-66.5 -39.3,-146.4 -29.7,-114.1 -71.6,-278.2 -111.4,-434.1 -60,-235.7 -124.8,-439.5 -124.8,-439.5 0,0 -28.5,-18.4 -97.1,-12.5 -46.9,4 -72.2,44 -72.2,44 0,0 6.9,861.7 49,1058.1 42.2,196.5 176.8,1403.1 244.9,1565.5 67.9,162.4 356.2,170 356.2,170"
         style="fill:#ffffff;fill-opacity:1;fill-rule:nonzero;stroke:none"
         id="path168" /><path
         d="m 22159.3,7974.3 c -29.7,-114.1 -71.6,-278.2 -111.4,-434.1 -25.6,72.1 -58.2,186.9 -78.8,344.2 -37.9,290.5 78.6,909.2 78.6,909.2 l 111.6,-819.3"
         style="fill:#dceaff;fill-opacity:1;fill-rule:nonzero;stroke:none"
         id="path170" /><path
         d="m 23652.3,7227.7 c -270.6,-152.6 -1430,-149.2 -1483.7,-29.4 -119.9,267.6 -150,1627.4 -93.4,2044.5 0,0 29.3,641 93.4,612.8 428.3,196.7 1121.4,18 1121.4,18 186.9,-55 170.9,-482.1 223,-1081.9 6.7,-77.2 14.2,-157.8 22.5,-241 36.9,-370.4 90.6,-795.9 172.1,-1244.7 5.5,-29.5 -15.1,-55.7 -55.3,-78.3"
         style="fill:#ffffff;fill-opacity:1;fill-rule:nonzero;stroke:none"
         id="path172" /><path
         d="m 22969.8,9945.7 c -7.2,-114.6 -156.7,-101.6 -336.6,-60.6 -179.7,40.9 -114.6,147 -114.6,147 0,0 2.6,81.5 14,179.1 4.1,35.4 9.3,73.2 16.1,109.8 3.2,18 6.7,35.6 10.8,52.7 23.5,100.9 359.1,3.5 356.7,-23.6 -6.5,-73.3 46.5,-314.3 53.6,-404.4"
         style="fill:#ffb27d;fill-opacity:1;fill-rule:nonzero;stroke:none"
         id="path174" /><path
         d="m 22584.4,9745.6 -14.2,158.4 199,-37.5 -76.6,-141.5 -108.2,20.6"
         style="fill:#233862;fill-opacity:1;fill-rule:nonzero;stroke:none"
         id="path176" /><path
         d="m 22522.8,10106.7 -118.9,-180.9 c 0,0 0,-111.3 103.2,-192 l 162.6,151.4 c 0,0 -105.1,40.1 -146.9,221.5"
         style="fill:#dceaff;fill-opacity:1;fill-rule:nonzero;stroke:none"
         id="path178" /><path
         d="m 22669.7,9885.2 c 0,0 33.7,-120.9 98.8,-176.4 0,0 253.9,68.3 314.5,198.3 l -132.3,170.8 c 0,0 -6.4,-129.2 -281,-192.7"
         style="fill:#dceaff;fill-opacity:1;fill-rule:nonzero;stroke:none"
         id="path180" /><path
         d="m 22918.1,10293.1 c 0,0 -161.6,-107.4 -385.5,-81.9 4.1,35.4 9.3,73.2 16.1,109.8 44.2,10.8 81.2,17.5 81.2,17.5 l 288.2,-45.4"
         style="fill:#e2915a;fill-opacity:1;fill-rule:nonzero;stroke:none"
         id="path182" /><path
         d="m 23020.7,10415.2 c -79,-217.4 -367.3,-161.9 -490,-127 -34.6,9.8 -56,18 -56,18 -37.9,17.2 -49.7,83.4 -46.3,167 6.5,165.5 71.9,399.2 109.3,455.5 56.5,84.7 150.6,170.8 430.2,50.9 279.7,-120 154.1,-285.8 52.8,-564.4"
         style="fill:#ffb27d;fill-opacity:1;fill-rule:nonzero;stroke:none"
         id="path184" /><path
         d="m 23236.7,10526.9 c -88.3,-72 -277.9,-205.2 -277.9,-205.2 0,0 21.1,24.9 46.9,96.8 2.9,8.1 3.8,20.1 3.4,32.7 -1,35.3 7.5,70.4 26,100.5 11.5,18.7 15.7,38.2 1.1,52 -24,22.7 -64.9,1.8 -91.7,-16.6 -17.7,-12.1 -40.9,-12.8 -59.1,-1.5 -0.1,0.1 -0.2,0.2 -0.4,0.3 -75.4,47.2 7.9,130.4 -53.4,199.5 -61.4,69 -326.6,78.5 -315.9,121.8 -90.6,51.2 -33.5,240 -31.9,250 0,0 130,-11.5 292.2,29 131.8,33.1 277,-51.5 323,-86.4 0,8.4 -1.4,20 -7.4,32.2 0,0 20,-19.7 19.6,-42.7 2,-2 2.9,-3.4 2.3,-3.7 0,0 26.2,0.5 41.5,-9.7 0,0 -11.2,3.6 -16.5,-3.1 -0.7,-0.8 -1.4,-1.3 -2.3,-1.8 176.3,-124.5 173.7,-484.3 100.5,-544.1"
         style="fill:#bc3f3f;fill-opacity:1;fill-rule:nonzero;stroke:none"
         id="path186" /><path
         d="m 22603.8,10446.6 c 0,0 -14.2,-27.3 -85.5,-4.6 0,0 -59.8,19 -49.9,50.6 0,0 64.6,7.9 135.4,-46"
         style="fill:#ffffff;fill-opacity:1;fill-rule:nonzero;stroke:none"
         id="path188" /><path
         d="m 22584.4,9745.6 c 0,0 -158.8,-2006.7 -156.6,-2173.9 2.2,-167.2 176,-344 176,-344 0,0 138.4,151.6 165.4,311.5 27.1,160 -76.6,2185.8 -76.6,2185.8 l -108.2,20.6"
         style="fill:#2a4e96;fill-opacity:1;fill-rule:nonzero;stroke:none"
         id="path190" /><path
         d="m 23652.3,7227.7 c -0.1,0 -0.1,0 -0.2,0 -482.7,69.5 -344.4,1667 -306.5,1673.3 37.9,6.3 176.7,-285.6 176.7,-285.6 l 13.2,-64.7 c 36.9,-370.4 90.6,-795.9 172.1,-1244.7 5.5,-29.5 -15.1,-55.7 -55.3,-78.3"
         style="fill:#dceaff;fill-opacity:1;fill-rule:nonzero;stroke:none"
         id="path192" /><path
         d="m 25071.2,6037.7 -1020.7,-297 c -132.8,-38.6 -273.1,38.4 -311.8,171.3 l -128.7,442.3 c -38.6,132.8 38.4,273.1 171.3,311.8 l 1020.6,297 c 132.9,38.7 273.2,-38.4 311.8,-171.2 l 128.8,-442.3 c 38.6,-132.9 -38.4,-273.2 -171.3,-311.9"
         style="fill:#a02e2e;fill-opacity:1;fill-rule:nonzero;stroke:none"
         id="path194" /><path
         d="m 24534.3,6886.6 -364.6,-106.2 -27.8,95.5 c -4.7,16.4 4.8,33.7 21.2,38.5 l 91.6,26.6 167.9,49 45.4,13.1 c 3.1,0.9 6.2,1.3 9.2,1.2 13.3,-0.2 25.4,-9 29.3,-22.3 z m -789.8,-492.9 130.2,-447.4 c 25.2,-86.6 93.5,-149.6 174.7,-172.5 27,-7.6 55.3,-10.8 84.1,-8.9 0.1,0 0.1,0 0.1,0 h 0.1 c 17.9,1.2 36,4.2 54,9.5 l 1018.8,296.5 c 133.4,38.8 210.7,179.6 171.9,313 l -130.2,447.4 c -38.8,133.4 -179.6,210.7 -313,171.9 l -350.8,-102.1 -27.7,95.5 c -12.8,44.1 -59.2,69.5 -103.3,56.7 l -38.5,-11.2 -213.4,-62.1 -53,-15.5 c -21.2,-6.1 -38.9,-20.4 -49.7,-39.9 -10.7,-19.5 -13.2,-42.1 -7,-63.3 l 27.8,-95.5 -203.3,-59.1 c -8,-2.3 -15.8,-5 -23.4,-8.1 l -0.1,-0.1 h -0.1 c -77.3,-31 -132.3,-97.9 -151.1,-175.3 v -0.1 c -10.1,-41.4 -9.8,-85.7 2.9,-129.4"
         style="fill:#bc3f3f;fill-opacity:1;fill-rule:nonzero;stroke:none"
         id="path196" /><path
         d="m 24228.5,7172.2 c 0,0 -31.6,-264.6 27.7,-260.8 59.3,3.8 204.5,32.2 214.4,77.8 9.9,45.6 -111.2,258.2 -111.2,258.2 l -130.9,-75.2"
         style="fill:#ffb27d;fill-opacity:1;fill-rule:nonzero;stroke:none"
         id="path198" /><path
         d="m 24236.1,7172.9 c 0,0 -45.4,-56.4 -49.3,-100.8 -3.9,-44.4 -25.6,-122 -5.2,-127 20.3,-5 57.5,96.6 57.5,96.6 l -3,131.2"
         style="fill:#ffb27d;fill-opacity:1;fill-rule:nonzero;stroke:none"
         id="path200" /><path
         d="m 23290.1,9873.6 c 0,0 256.3,-61.4 459,-450.7 202.6,-389.3 362.7,-1174.5 459.5,-1381.8 96.7,-207.2 170.4,-829.1 170.4,-829.1 0,0 -15.1,-30.9 -67.3,-42.2 -40.4,-8.7 -82,-5.3 -82,-5.3 0,0 -381.1,610.5 -435.8,829.8 C 23764.3,8113 23312,9063 23312,9063 l -21.9,810.6"
         style="fill:#ffffff;fill-opacity:1;fill-rule:nonzero;stroke:none"
         id="path202" /><path
         d="m 6407.3,3095.6 -38.4,276.7 161.34,134.8 50.82,-366.3 -173.76,-45.2"
         style="fill:#ffb27d;fill-opacity:1;fill-rule:nonzero;stroke:none"
         id="path204" /><path
         d="m 6943.1,2848.5 h -657.78 c 0,0 -15.76,100.3 18.59,176.3 32.93,73 84.16,118.1 88.83,174 41.8,-43.1 93.23,-70.8 188.32,-58 11.66,-18.9 75.22,-120 114.14,-147.9 42.99,-30.9 234.66,-19.9 247.9,-144.4"
         style="fill:#233862;fill-opacity:1;fill-rule:nonzero;stroke:none"
         id="path206" /><path
         d="m 6810.94,6831.2 c -43.02,-346 -78.2,-672.3 -106.85,-976.3 -153.08,-1620.1 -123.04,-2610.3 -123.04,-2610.3 0,0 -11.06,-29.3 -105.97,-29.7 -53.64,-0.3 -106.18,11.4 -106.18,11.4 0,0 -342.75,1057.9 -316.29,1659.9 3.15,72.4 11.65,138.2 26.75,194.9 82.22,308 -304.27,1485.9 115.86,1924.6 420.05,438.6 635.5,-15.7 615.72,-174.5"
         style="fill:#f99746;fill-opacity:1;fill-rule:nonzero;stroke:none"
         id="path208" /><path
         d="m 6810.94,6831.2 c -43.02,-346 -78.2,-672.3 -106.85,-976.3 l -651.48,-968.7 c 3.15,72.4 11.65,138.2 26.75,194.9 82.22,308 -304.27,1485.9 115.86,1924.6 420.05,438.6 635.5,-15.7 615.72,-174.5"
         style="fill:#ed7d2b;fill-opacity:1;fill-rule:nonzero;stroke:none"
         id="path210" /><path
         d="m 7328.63,10131.9 c 0,0 -15.85,79.1 -33.7,139.4 -7.9,26.7 47.16,202.1 85.26,223.6 38.11,21.6 137.35,-96.5 109.27,-187.1 -14.43,-46.6 -38.13,-198.2 -38.13,-198.2 l -122.7,22.3"
         style="fill:#ffb27d;fill-opacity:1;fill-rule:nonzero;stroke:none"
         id="path212" /><path
         d="m 7328.63,10131.9 c 0,0 -20.71,45.9 -39.42,53.3 -18.71,7.4 -38.76,82.4 -52.49,112.1 0,0 13.26,19.4 36.47,-5.6 14.16,-15.2 45.72,-60 45.72,-60 l 9.72,-99.8"
         style="fill:#ffb27d;fill-opacity:1;fill-rule:nonzero;stroke:none"
         id="path214" /><path
         d="m 4613.23,9866 c -4.03,-8.3 -9.64,-23.2 -14.63,-37.2 -0.08,3.8 -0.14,7.6 -0.18,11.3 -0.26,27.8 -104.24,179.4 -146.98,188.9 -42.76,9.5 -103.1,-132.5 -49.7,-211 27.43,-40.3 94.45,-178.3 94.45,-178.3 l 110.8,57.2 c 0,0 6.39,49.9 22.1,62.5 15.71,12.6 12.95,90.1 17.38,122.6 0,0 -18.37,14.7 -33.24,-16"
         style="fill:#ffb27d;fill-opacity:1;fill-rule:nonzero;stroke:none"
         id="path216" /><path
         d="m 5304.16,3178.6 c -9.3,88.6 -11.6,321.9 -11.6,321.9 0,0 237.71,76 228.96,23.8 -43.01,-256.5 -31.33,-383.5 -31.33,-383.5 l -96.13,-57.4 -89.9,95.2"
         style="fill:#ffb27d;fill-opacity:1;fill-rule:nonzero;stroke:none"
         id="path218" /><path
         d="m 6612.41,6847.7 c 0,0 -918.32,-2517.3 -1099.09,-3609.2 0,0 -41.88,-28.8 -120,-19.2 -88.6,10.8 -112.88,72.4 -112.88,72.4 0,0 -165.9,1308.7 163.84,1763 226.54,312.2 -97.71,1683.1 429.92,1793 527.64,109.9 738.21,0 738.21,0"
         style="fill:#f99746;fill-opacity:1;fill-rule:nonzero;stroke:none"
         id="path220" /><path
         d="m 6449.3,9269.2 c -0.01,0.1 -0.01,0.1 -0.01,0.1 -0.16,1.1 -0.42,2.1 -0.76,3.2 -5.37,22.2 -11.23,44 -17.54,65.6 -0.01,0.1 -0.01,0.1 -0.01,0.1 -19.22,66.2 -42.09,129.2 -66.76,184.9 -14.21,31.9 -28.92,61.5 -43.98,87.8 -2.3,4.1 -4.55,7.8 -6.71,11.7 l -0.11,0.1 c -35.49,59.7 -71.97,100.9 -104.88,113.6 -60.04,23.2 -126.83,16.8 -172.81,7.2 10.09,14.1 32.98,22 32.98,22 -29.43,0.1 -89.36,-38 -89.36,-38 -422.96,94.6 -398.24,-503.7 -369.44,-639.3 28.7,-135.6 -107.48,-201.5 -299.53,-340.3 C 4943.87,8483.2 4950,8202.5 4950,8202.5 c 3.31,-1.4 6.92,-3 10.66,-4.9 14.75,36.3 46.03,105.1 78.82,119.6 -0.93,-3.2 -27.6,-92.3 -35.17,-142.1 55.83,-30.8 133.09,-78.4 216.98,-132.2 0,0 0,0 0.11,-0.1 112.25,-71.8 236.14,-154.5 335.42,-221.6 -4.72,27.3 -9.39,66.3 -2.45,88.3 l 31.63,-98 4.15,-12.8 c 63.36,-42.9 113.35,-77.3 138.73,-94.9 2.6,-1.8 4.91,-3.4 6.98,-4.8 7.42,-5 11.39,-7.8 11.39,-7.8 -8.43,34.6 28.55,124.9 90.61,238.7 4.25,7.9 8.76,16 13.36,24.2 20.04,36 42.41,73.9 66.49,113 8.67,14.1 17.44,28.2 26.54,42.6 -0.01,0.1 0.08,0.1 0.08,0.1 7.28,11.6 14.65,23.1 22.28,34.8 l 0.07,0.1 c 17.99,27.8 36.59,55.8 55.57,83.8 49.16,72.6 101.21,144.7 152.65,210.8 74.69,96.3 147.98,180 209.35,234.8 2.01,4.1 3.91,8.3 5.62,12.6 9.61,22.3 16.98,47.1 22.69,72.4 1.78,7.5 3.36,15.2 4.75,22.8 15.3,80.5 15.6,160.4 15.4,179.3 4.91,-77.7 2.96,-136.4 -2.25,-180.7 -1.18,-9.8 -2.46,-18.8 -3.94,-27.2 h 0.02 c -3.27,-19 -7.04,-34.6 -11.11,-47.6 10.05,12.5 18.89,26.1 26.69,41.1 5.11,9.7 9.77,20 13.89,30.7 49.5,126.4 36.18,314.9 -6.71,491.7"
         style="fill:#163560;fill-opacity:1;fill-rule:nonzero;stroke:none"
         id="path222" /><path
         d="m 6369.84,8663 c 1.42,-0.4 -118.41,-87.1 -220.06,-74.9 -95.61,11.4 -173.36,121.6 -172.13,122 37.76,13.5 41.02,68.7 6.02,298.3 l 18.11,-0.8 304.47,-14.6 c 0,0 7.11,-94.1 19.96,-181.8 10.75,-73.6 25.6,-142.8 43.63,-148.2"
         style="fill:#ffb27d;fill-opacity:1;fill-rule:nonzero;stroke:none"
         id="path224" /><path
         d="m 6306.25,8993 c 0,0 7.11,-94.1 19.96,-181.8 -166.2,-19.9 -276.14,118 -324.43,196.4 l 304.47,-14.6"
         style="fill:#ed975d;fill-opacity:1;fill-rule:nonzero;stroke:none"
         id="path226" /><path
         d="m 5966.44,9035.2 c 0,0 -107.11,124.2 -145.36,238.3 -27.31,81.4 -30.83,397.8 287.44,399.5 0,0 91.84,4.6 185.45,-40.2 74.46,-35.7 186.78,-119.8 117.86,-406.6 l -14.77,-95.7 -430.62,-95.3"
         style="fill:#163560;fill-opacity:1;fill-rule:nonzero;stroke:none"
         id="path228" /><path
         d="m 6849.31,6896 c 0,0 -396.21,-235.4 -893.66,-114.4 -5.86,1.5 -409.61,65.9 -409.61,65.9 6.93,19 59.11,330.9 65.94,348.3 88.25,227.8 249.54,1463.8 384.3,1524.8 34.41,-37.5 132.75,-63.1 216.92,-55.7 96.92,8.6 129.37,50.5 121.33,95.5 107.25,-50.7 189.66,-97.8 189.66,-97.8 98.03,-146.9 325.12,-1766.6 325.12,-1766.6"
         style="fill:#ffffff;fill-opacity:1;fill-rule:nonzero;stroke:none"
         id="path230" /><path
         d="m 6373.87,8918.2 c 0,0 -390.62,-64.7 -427.17,179.2 -36.55,243.8 -111.58,399.7 136.27,451.4 247.86,51.6 310.37,-34.2 342.37,-112.6 32,-78.5 49.2,-494.9 -51.47,-518"
         style="fill:#ffb27d;fill-opacity:1;fill-rule:nonzero;stroke:none"
         id="path232" /><path
         d="m 6260.42,9581.3 c 0,0 -64.64,-302.1 -222.89,-368.9 -158.24,-66.8 -236.17,-33.3 -236.17,-33.3 0,0 111.3,119 111.46,297.9 0,0 246.47,228.4 347.6,104.3"
         style="fill:#163560;fill-opacity:1;fill-rule:nonzero;stroke:none"
         id="path234" /><path
         d="m 6237.31,9554.1 c 0,0 89.57,-52 118.33,-111.2 28.76,-59.2 56.56,-185.8 93.18,-175.9 0,0 51.84,206.5 -55.3,303.1 -113.61,102.3 -156.21,-16 -156.21,-16"
         style="fill:#163560;fill-opacity:1;fill-rule:nonzero;stroke:none"
         id="path236" /><path
         d="m 7454,10126.3 c -15.88,5.6 -39.3,18.8 -69.83,21.6 -27.2,2.4 -61.38,-6.5 -61.38,-6.5 0,0 -110.2,-685 -118.39,-721.3 -8.18,-36.3 -472.7,-559.6 -597.94,-557.5 -113.09,1.9 -247.07,-85.4 -271.93,-102.2 0,0 263.37,-556.9 276.5,-661.5 14.29,-113.8 150.63,-1866.8 150.63,-1866.8 0,0 -8.11,-81.5 144.26,-37.7 152.36,43.9 190.47,80.1 190.47,80.1 0,0 -139.96,1380.1 -169.32,1809.2 -3.94,57.6 -13.35,111 -26.74,160.2 -12.91,47.4 -2.73,98.1 26.22,137.8 192.63,264.5 496.84,692.9 513.79,784 24.9,133.8 13.66,960.6 13.66,960.6"
         style="fill:#2b478b;fill-opacity:1;fill-rule:nonzero;stroke:none"
         id="path238" /><path
         d="m 5852.22,2848.5 h -657.78 c 0,0 -15.77,100.3 18.59,176.3 32.92,73 84.16,118.1 88.83,174 41.8,-43.1 93.23,-70.8 188.33,-58 11.65,-18.9 75.21,-120 114.13,-147.9 42.98,-30.9 234.66,-19.9 247.9,-144.4"
         style="fill:#233862;fill-opacity:1;fill-rule:nonzero;stroke:none"
         id="path240" /><path
         d="m 6304.07,8044.8 c -22.16,136.4 -305.2,684.2 -305.2,684.2 0,0 -178.93,53.5 -296.7,10.8 -117.76,-42.6 -727.07,301.4 -746.6,333.1 -19.53,31.6 -345.88,639.7 -345.88,639.7 0,0 -27.06,15.7 -70.42,-6.9 -42.89,-22.3 -43.08,-66 -43.08,-66 0,0 251.87,-765.6 318.88,-884.1 40.41,-71.4 380.13,-320.1 643.52,-506.3 50.29,-35.5 76.7,-96.1 68.44,-157.1 -35.41,-261.8 -44.43,-409.3 -85.16,-858.5 -33.79,-372.7 -46.72,-1094.3 -46.72,-1094.3 0,0 294.74,-102 498.16,-115.5 203.42,-13.6 247.75,200.9 247.75,200.9 0,0 185.8,1679.7 163.01,1820"
         style="fill:#2b478b;fill-opacity:1;fill-rule:nonzero;stroke:none"
         id="path242" /><path
         d="m 6245.87,9038.8 c 0,0 47.46,-27.9 103.49,-19.5 38.38,5.8 47.1,51.3 47.1,51.3 0,0 -26.68,8.4 -69.26,-0.2 -42.58,-8.5 -81.33,-31.6 -81.33,-31.6"
         style="fill:#ffffff;fill-opacity:1;fill-rule:nonzero;stroke:none"
         id="path244" /><path
         d="m 18722.4,13687.8 c 0,0 -182.7,324.8 0,390.9 182.8,66.1 265.5,5.1 274.2,-68.8 8.7,-74 -69.6,-365.6 -69.6,-365.6 l -204.6,43.5"
         style="fill:#ffb27d;fill-opacity:1;fill-rule:nonzero;stroke:none"
         id="path246" /><path
         d="m 18868.9,11610.4 c -333.2,-60.1 -639.6,-87.9 -916.2,-94.1 -262.5,-5.9 -498,7.7 -704.2,31.7 -55.4,6.3 -108.6,13.5 -159.7,21.2 -539.5,81.8 -837.5,226.9 -837.5,226.9 0,0 493,1032 891.3,992.4 467.2,-46.6 1258.9,-465.9 1337.6,-348.3 88.6,132.5 162.8,1268.7 162.8,1268.7 207.1,141.8 330.8,-7.7 330.8,-7.7 0,0 404.7,-1998.9 -104.9,-2090.8"
         style="fill:#f99746;fill-opacity:1;fill-rule:nonzero;stroke:none"
         id="path248" /><path
         d="m 18868.9,11610.4 c -333.2,-60.1 -639.6,-87.9 -916.2,-94.1 -262.5,-5.9 -498,7.7 -704.2,31.7 -124.3,395.3 -213.7,799.1 36.3,555.6 441,-429.3 1584.1,-493.2 1584.1,-493.2"
         style="fill:#ed7d2b;fill-opacity:1;fill-rule:nonzero;stroke:none"
         id="path250" /><path
         d="m 16213.9,3278.2 c 0,0 -35.4,-410.3 51.3,-452.9 l 1109.8,2.2 c 0,0 0,128.1 -178.3,156.6 -178.2,28.4 -491.4,132.8 -544.4,365.2 -53,232.5 -438.4,-71.1 -438.4,-71.1"
         style="fill:#233862;fill-opacity:1;fill-rule:nonzero;stroke:none"
         id="path252" /><path
         d="m 17028.7,8243.4 c -5.5,-268.2 -18.4,-544.9 -43.6,-793.6 -119.9,-1180 -162,-2605.8 -179.2,-2880.7 -29.9,-477.1 -124.1,-1239.4 -124.1,-1239.4 0,0 -187,-177.5 -551.5,-92.8 0,0 -301.9,1097.9 -369.4,2254 -1,19 -2,38.1 -3,57.1 -7.8,152.9 -16,327.6 -24.4,516.1 -55.5,1262.3 -115.8,3137.4 -115.8,3137.4 l 1392.6,327 c 0,0 32.1,-616.3 18.4,-1285.1"
         style="fill:#2a4e96;fill-opacity:1;fill-rule:nonzero;stroke:none"
         id="path254" /><path
         d="m 17028.7,8243.4 c -353,-608.9 -1025.7,-1730.8 -1295.2,-2179.3 -55.5,1262.3 -115.8,3137.4 -115.8,3137.4 l 1392.6,327 c 0,0 32.1,-616.3 18.4,-1285.1"
         style="fill:#233862;fill-opacity:1;fill-rule:nonzero;stroke:none"
         id="path256" /><path
         d="m 13502.4,9423 c 0,0 -226.6,-266.5 -247,-340.4 -20.4,-73.9 -56.7,-340.1 -37.2,-420.1 19.4,-80 170.1,223.1 224.9,255.4 54.8,32.4 -41.1,-120.5 -22.4,-146 18.7,-25.5 126.9,89.2 169.1,128.1 42.2,38.8 38,247.8 88.7,371.4 50.7,123.6 -176.1,151.6 -176.1,151.6"
         style="fill:#ffb27d;fill-opacity:1;fill-rule:nonzero;stroke:none"
         id="path258" /><path
         d="m 13449.3,3744.4 c 0,0 -197.6,-180.2 -159,-308.3 38.5,-128.1 216.8,-213.5 240.9,-370 24.1,-156.6 120.4,-242 207.1,-242 86.8,0 413.5,0 413.5,0 0,0 63.8,110.2 -90.4,143.4 -154.1,33.2 -212.3,217.2 -202.6,387.9 9.6,170.8 -14.5,398.5 -14.5,398.5 l -327.6,75.9 -67.4,-85.4"
         style="fill:#233862;fill-opacity:1;fill-rule:nonzero;stroke:none"
         id="path260" /><path
         d="m 16790.9,9172.9 c 0,0 -1303.7,-2789.4 -1997.5,-4013.3 -693.7,-1223.9 -910.5,-1565.4 -910.5,-1565.4 0,0 -397.5,156.5 -433.6,263.3 0,0 265.3,2362.8 729.9,2938.8 262.5,325.4 570.9,1302.1 585.3,1643.7 14.5,341.6 319,1156.8 319,1156.8 l 1707.4,-423.9"
         style="fill:#2a4e96;fill-opacity:1;fill-rule:nonzero;stroke:none"
         id="path262" /><path
         d="m 17172,9041.4 c 0,0 -518.4,-346.6 -1252.2,-314.4 -322,14 -960.7,105.3 -1063.8,361.4 -24.2,60.2 -6.5,136.5 29.8,253.6 94.3,304.4 313.9,884.1 247.6,2169.4 -6.2,119.5 -2.8,232 8.6,337.2 69.1,633.1 431.9,1008 782.6,1130.5 855.2,299 1140.3,-115.2 1140.3,-115.2 0,0 378,-299.5 435,-924.5 113.9,-1250.2 -327.9,-2898 -327.9,-2898"
         style="fill:#f99746;fill-opacity:1;fill-rule:nonzero;stroke:none"
         id="path264" /><path
         d="m 16175.2,13050.9 c 0,0 392.4,-238.6 818,-171.1 0,0 84.2,21.4 42.8,120.1 25.9,79.8 22.8,72.6 37.8,131.8 37.3,136.4 48.7,215.1 48.7,215.1 l -241.5,253.8 -228.8,242.6 c -63.2,-579.8 -477,-792.3 -477,-792.3"
         style="fill:#ffb27d;fill-opacity:1;fill-rule:nonzero;stroke:none"
         id="path266" /><path
         d="m 16615.6,13623.3 c 0,0 131.4,-351.3 458.2,-491.6 37.3,136.4 61.6,279 61.6,279 l -254.4,189.9 -265.4,22.7"
         style="fill:#ed985f;fill-opacity:1;fill-rule:nonzero;stroke:none"
         id="path268" /><path
         d="m 17393.5,13359 c 0,0 -749,-93.6 -801.6,366.7 -52.6,460.3 -184.7,758.2 291.3,837.4 476,79.3 589.2,-86.2 644.7,-235.7 55.5,-149.4 59.1,-932.2 -134.4,-968.4"
         style="fill:#ffb27d;fill-opacity:1;fill-rule:nonzero;stroke:none"
         id="path270" /><path
         d="m 16355.4,14637.9 c -6.5,8 -21.8,14.9 -56.4,18.1 0,0 28.4,16.3 65.5,15.8 9,48 37.9,132.4 121.7,150 0,0 -45.5,-22.1 -53.2,-73.2 99.8,95.1 308.6,159.2 877.4,92.6 749.7,-87.8 483.7,-559.8 384.1,-613.5 -99.5,-53.7 -338.5,112.9 -520.4,105.4 -181.9,-7.6 -226.4,-268.3 -289.2,-302 -62.9,-33.6 -36.3,29.1 -118.1,69.8 -81.9,40.8 -95,-96.8 -74.3,-187.4 20.6,-90.6 -98.2,-204.6 -98.2,-204.6 0,0 0,0 -110.9,128.9 -110.9,128.8 -199.9,660.2 -143.1,770.6 5,9.7 10,19.6 15.1,29.5"
         style="fill:#2c3a64;fill-opacity:1;fill-rule:nonzero;stroke:none"
         id="path272" /><path
         d="m 18643,13903.3 -1271.6,-11.4 -8.7,191.3 1267.6,98.3 12.7,-278.2"
         style="fill:#2a4e96;fill-opacity:1;fill-rule:nonzero;stroke:none"
         id="path274" /><path
         d="m 19602.9,13871.3 -1384.5,-20 -15.8,347.8 1380.5,107 19.8,-434.8"
         style="fill:#2a4e96;fill-opacity:1;fill-rule:nonzero;stroke:none"
         id="path276" /><path
         d="m 20536.4,13844 -1167.5,-1.4 -21.3,469.5 1162.7,105.8 26.1,-573.9"
         style="fill:#233862;fill-opacity:1;fill-rule:nonzero;stroke:none"
         id="path278" /><path
         d="m 20553.1,13764.8 v 0 c 36,1.6 63.9,32.1 62.2,68.1 l -27.4,603.2 c -1.6,36 -32.1,63.9 -68.1,62.3 v 0 c -36.1,-1.7 -63.9,-32.2 -62.3,-68.2 l 27.4,-603.2 c 1.6,-36 32.2,-63.9 68.2,-62.2"
         style="fill:#233862;fill-opacity:1;fill-rule:nonzero;stroke:none"
         id="path280" /><path
         d="m 17367.4,13851.1 v 0 c -32,-1.4 -59.1,23.3 -60.6,55.3 l -7.1,156.5 c -1.5,32.1 23.3,59.2 55.3,60.7 v 0 c 32.1,1.4 59.2,-23.4 60.6,-55.4 l 7.1,-156.5 c 1.5,-32 -23.3,-59.1 -55.3,-60.6"
         style="fill:#2a4e96;fill-opacity:1;fill-rule:nonzero;stroke:none"
         id="path282" /><path
         d="m 14885.8,9342 c 94.3,304.4 313.9,884.1 247.6,2169.4 -6.2,119.5 -2.8,232 8.6,337.2 h 0.1 c 281.4,24.2 711.7,-280 711.7,-280 0,0 -265,-1615.4 -968,-2226.6"
         style="fill:#ed7d2b;fill-opacity:1;fill-rule:nonzero;stroke:none"
         id="path284" /><path
         d="m 16175.2,13050.9 c 0,0 -721.7,-124 -1098.1,-583.5 -376.4,-459.5 -981.9,-1107.4 -1125,-1334.3 -143.2,-226.9 -540.6,-1771 -540.6,-1771 0,0 26.3,-49.6 135.9,-78.5 104.9,-27.7 181,15.2 181,15.2 0,0 526.5,901.1 724.7,1351.3 82.3,187 1506.2,927.7 2041.5,850.9 210.2,-30.1 -319.4,1549.9 -319.4,1549.9"
         style="fill:#f99746;fill-opacity:1;fill-rule:nonzero;stroke:none"
         id="path286" /><path
         d="m 18635.4,14236.3 c 0,0 155.2,-95 248.1,-54.8 92.8,40.2 84.6,76.9 84.6,76.9 0,0 -280.5,77.9 -332.7,-22.1"
         style="fill:#ffb27d;fill-opacity:1;fill-rule:nonzero;stroke:none"
         id="path288" /><path
         d="m 16875.5,12547.6 c 0,0 -316.7,-1999.6 -2563.8,-2581.8 l -244.8,-482.9 430,-72.8 c 0,0 2558.3,741.2 2523.8,3172.8 l -145.2,-35.3"
         style="fill:#bc3f3f;fill-opacity:1;fill-rule:nonzero;stroke:none"
         id="path290" /><path
         d="m 16826.4,12866.7 -103.7,-10.1 v -150.2 l 152.8,-158.8 145.3,35.3 v 208.4 l -104.5,75.4 h -89.9"
         style="fill:#a02e2e;fill-opacity:1;fill-rule:nonzero;stroke:none"
         id="path292" /><path
         d="m 16419.4,13264.3 c 0,0 -100.4,-22.6 -330,-213.4 0,0 228.3,-484.5 709.9,-542.5 0,0 -7.7,224.8 27.1,358.3 0,0 -381.7,136.7 -407,397.6"
         style="fill:#ed7d2b;fill-opacity:1;fill-rule:nonzero;stroke:none"
         id="path294" /><path
         d="m 16826.4,12866.7 c 0,0 235,-124.8 252.4,-319.1 0,0 89.8,142.3 63.8,240.8 -26.1,98.6 -106.6,211.5 -106.6,211.5 0,0 8,-118.7 -209.6,-133.2"
         style="fill:#ed7d2b;fill-opacity:1;fill-rule:nonzero;stroke:none"
         id="path296" /></g></g></svg>
